M48
; DRILL file {KiCad 7.0.9} date Mon Jan 22 22:48:05 2024
; FORMAT={-:-/ absolute / metric / decimal}
; #@! TF.CreationDate,2024-01-22T22:48:05+08:00
; #@! TF.GenerationSoftware,Kicad,Pcbnew,7.0.9
; #@! TF.FileFunction,Plated,1,4,PTH
FMAT,2
METRIC
; #@! TA.AperFunction,Plated,PTH,ViaDrill
T1C0.300
; #@! TA.AperFunction,Plated,PTH,ViaDrill
T2C0.500
; #@! TA.AperFunction,Plated,PTH,ComponentDrill
T3C0.600
; #@! TA.AperFunction,Plated,PTH,ComponentDrill
T4C1.200
%
G90
G05
T1
X97.408Y-81.011
X99.033Y-81.061
X99.033Y-82.585
X99.06Y-105.664
X99.06Y-106.426
X99.187Y-89.408
X99.187Y-90.17
X99.822Y-105.664
X99.822Y-106.426
X99.949Y-89.408
X99.949Y-90.17
X100.557Y-81.061
X100.584Y-105.664
X100.584Y-106.426
X100.711Y-89.408
X100.711Y-90.17
X101.192Y-81.986
X101.573Y-79.918
X102.108Y-82.55
X102.108Y-83.562
X102.108Y-92.964
X102.235Y-93.98
X102.235Y-101.346
X102.997Y-72.644
X102.997Y-73.406
X103.378Y-100.874
X103.759Y-72.644
X103.759Y-73.406
X103.759Y-114.427
X103.759Y-115.189
X103.759Y-115.951
X104.521Y-72.644
X104.521Y-73.406
X104.521Y-114.427
X104.521Y-115.189
X104.521Y-115.951
X105.029Y-97.79
X105.283Y-114.427
X105.283Y-115.189
X105.283Y-115.951
X105.664Y-122.174
X105.664Y-122.936
X106.045Y-86.062
X106.045Y-86.912
X106.426Y-122.174
X106.426Y-122.936
X107.188Y-122.174
X107.188Y-122.936
X107.95Y-105.918
X108.077Y-114.427
X108.077Y-115.189
X108.077Y-115.951
X108.458Y-82.55
X108.83Y-109.601
X108.839Y-114.427
X108.839Y-115.189
X108.839Y-115.951
X109.093Y-79.756
X109.383Y-92.831
X109.601Y-114.427
X109.601Y-115.189
X109.601Y-115.951
X110.109Y-88.519
X110.617Y-122.174
X110.709Y-92.964
X110.709Y-93.9
X112.141Y-79.756
X112.522Y-76.581
X113.411Y-100.33
X113.538Y-95.377
X113.538Y-107.823
X114.681Y-99.278
X115.443Y-75.311
X115.443Y-108.331
X115.443Y-109.093
X115.57Y-113.538
X115.951Y-101.727
X115.951Y-102.362
X116.205Y-108.331
X116.205Y-109.093
X116.332Y-113.538
X116.332Y-122.047
X116.967Y-108.331
X116.967Y-109.093
X117.221Y-101.727
X117.221Y-102.362
X117.729Y-108.331
X117.729Y-109.093
X117.856Y-83.312
X118.061Y-94.131
X118.364Y-81.902
X118.491Y-101.727
X118.491Y-102.362
X118.618Y-78.232
X118.745Y-75.438
X118.872Y-94.234
X119.832Y-97.162
X119.888Y-101.875
X120.888Y-106.898
X120.992Y-93.98
X121.539Y-87.884
X121.686Y-106.953
X122.262Y-93.853
X122.555Y-78.613
X123.38Y-96.865
X123.444Y-119.253
X123.444Y-120.015
X123.444Y-120.777
X123.558Y-93.726
X123.571Y-103.505
X124.206Y-78.74
X124.206Y-119.253
X124.206Y-120.015
X124.206Y-120.777
X124.574Y-94.049
X124.714Y-107.315
X124.968Y-119.253
X124.968Y-120.015
X124.968Y-120.777
X126.238Y-113.538
X126.492Y-108.458
X126.492Y-109.22
X126.527Y-94.234
X127.0Y-119.253
X127.0Y-120.015
X127.0Y-120.777
X127.127Y-101.727
X127.127Y-102.362
X127.254Y-108.458
X127.254Y-109.22
X127.381Y-86.106
X127.381Y-86.868
X127.762Y-119.253
X127.762Y-120.015
X127.762Y-120.777
X127.876Y-95.885
X127.876Y-96.814
X128.016Y-108.458
X128.016Y-109.22
X128.143Y-86.106
X128.143Y-86.868
X128.397Y-101.727
X128.397Y-102.362
X128.524Y-119.253
X128.524Y-120.015
X128.524Y-120.777
X128.651Y-113.538
X128.686Y-80.79
X128.778Y-108.458
X128.778Y-109.22
X128.905Y-86.106
X128.905Y-86.868
X129.076Y-96.814
X129.321Y-80.155
X129.413Y-113.538
X129.667Y-86.106
X129.667Y-86.868
X129.667Y-101.727
X129.667Y-102.362
X129.78Y-94.121
X130.404Y-79.421
X130.556Y-119.253
X130.556Y-120.015
X130.556Y-120.777
X131.191Y-107.315
X131.318Y-119.253
X131.318Y-120.015
X131.318Y-120.777
X131.409Y-97.215
X131.953Y-89.027
X132.08Y-119.253
X132.08Y-120.015
X132.08Y-120.777
X132.298Y-106.474
X132.5Y-81.028
X132.715Y-95.504
X134.112Y-93.853
X134.874Y-89.027
X135.255Y-96.266
X135.763Y-93.726
X136.262Y-75.39
X136.271Y-82.772
X136.922Y-82.307
X137.153Y-76.194
X137.27Y-77.933
X137.287Y-75.406
X137.541Y-121.158
X137.541Y-121.92
X137.764Y-78.731
X137.795Y-82.264
X137.922Y-72.009
X137.922Y-108.585
X137.922Y-109.347
X138.303Y-121.158
X138.303Y-121.92
X138.324Y-77.29
X138.43Y-101.727
X138.43Y-102.362
X138.557Y-75.057
X138.6Y-74.252
X138.684Y-108.585
X138.684Y-109.347
X138.72Y-100.445
X139.048Y-96.774
X139.32Y-99.917
X139.446Y-108.585
X139.446Y-109.347
X139.7Y-101.727
X139.7Y-102.362
X139.918Y-83.486
X140.115Y-77.819
X140.145Y-81.135
X140.208Y-108.585
X140.208Y-109.347
X140.319Y-92.396
X140.737Y-93.078
X140.97Y-101.727
X140.97Y-102.362
X140.97Y-118.999
X141.097Y-94.107
X141.23Y-78.566
X141.241Y-79.403
X141.308Y-122.026
X141.986Y-77.343
X142.002Y-80.412
X142.012Y-79.613
X142.785Y-77.359
X142.832Y-122.026
X143.256Y-91.694
X143.256Y-95.885
X143.383Y-108.077
X143.637Y-85.894
X143.655Y-83.186
X143.819Y-102.75
X143.823Y-97.604
X143.891Y-88.646
X144.018Y-91.983
X144.018Y-121.92
X144.022Y-93.983
X144.263Y-83.705
X144.272Y-123.063
X144.37Y-74.719
X144.402Y-84.499
X144.822Y-93.983
X144.906Y-75.487
X145.034Y-89.916
X145.034Y-121.666
X145.288Y-73.66
X145.288Y-87.503
X145.288Y-91.44
X145.669Y-93.983
X145.823Y-101.55
X147.022Y-98.047
X147.202Y-92.338
X148.463Y-87.63
X148.81Y-85.378
X148.844Y-101.6
X149.994Y-94.495
X150.114Y-96.52
X150.13Y-79.486
X150.18Y-101.417
X150.368Y-109.093
X150.368Y-109.855
X150.406Y-89.535
X150.622Y-85.223
X150.72Y-82.833
X150.737Y-100.843
X151.003Y-94.615
X151.13Y-87.63
X151.13Y-109.093
X151.13Y-109.855
X151.482Y-75.184
X151.765Y-81.756
X151.892Y-109.093
X151.892Y-109.855
X152.399Y-80.922
X152.527Y-121.031
X152.818Y-100.061
X153.162Y-76.2
X153.178Y-85.215
X153.543Y-99.66
X153.797Y-84.709
X154.051Y-123.825
X154.161Y-81.919
X154.23Y-90.755
X154.813Y-76.2
X154.987Y-91.017
X155.612Y-76.327
X155.618Y-89.835
X156.221Y-76.845
X156.375Y-94.215
X156.624Y-78.305
X156.967Y-95.563
X157.226Y-77.597
X157.887Y-92.609
X158.093Y-91.726
X158.785Y-94.929
X159.069Y-101.7
X159.258Y-72.009
X159.391Y-96.101
X159.512Y-78.07
X159.551Y-90.11
X159.633Y-82.078
X160.226Y-95.761
X160.304Y-91.57
X160.314Y-90.349
X160.528Y-92.424
X160.528Y-94.562
X160.612Y-82.492
X160.671Y-89.265
X160.746Y-102.679
X160.827Y-78.438
X160.923Y-105.128
X161.036Y-106.045
X161.076Y-80.695
X161.167Y-104.366
X161.175Y-98.2
X161.399Y-101.709
X161.544Y-111.76
X161.544Y-118.872
X161.617Y-78.214
X161.641Y-83.091
X161.798Y-88.392
X161.925Y-104.013
X162.021Y-84.291
X162.179Y-92.437
X162.179Y-122.174
X162.179Y-122.974
X162.306Y-83.534
X162.748Y-77.648
X163.372Y-95.776
X163.576Y-77.129
X163.645Y-122.119
X164.211Y-76.454
X164.338Y-105.826
X164.922Y-75.879
X165.06Y-122.19
X165.354Y-123.952
X166.497Y-100.076
X166.565Y-74.236
X166.624Y-108.331
X166.624Y-109.093
X167.005Y-101.727
X167.005Y-102.362
X167.267Y-113.538
X167.386Y-108.331
X167.386Y-109.093
X168.148Y-98.171
X168.148Y-108.331
X168.148Y-109.093
X168.156Y-113.538
X168.275Y-101.727
X168.275Y-102.362
X168.275Y-121.285
X168.275Y-122.047
X168.91Y-108.331
X168.91Y-109.093
X169.037Y-121.285
X169.037Y-122.047
X169.545Y-81.28
X169.545Y-101.727
X169.545Y-102.362
X170.307Y-90.297
X170.307Y-91.948
X170.434Y-99.568
X170.548Y-93.853
X170.563Y-88.136
X170.815Y-79.18
X170.879Y-85.153
X171.26Y-105.727
X172.072Y-93.853
X173.101Y-73.533
X173.85Y-93.726
X174.117Y-79.18
X174.498Y-119.253
X174.498Y-120.015
X174.498Y-120.777
X175.101Y-79.375
X175.12Y-93.726
X175.26Y-119.253
X175.26Y-120.015
X175.26Y-120.777
X175.768Y-100.203
X176.022Y-102.489
X176.022Y-119.253
X176.022Y-120.015
X176.022Y-120.777
X176.784Y-98.425
X177.038Y-113.538
X177.419Y-93.853
X177.673Y-108.458
X177.673Y-109.22
X177.927Y-113.538
X178.054Y-119.253
X178.054Y-120.015
X178.054Y-120.777
X178.181Y-86.106
X178.181Y-86.868
X178.181Y-101.727
X178.181Y-102.362
X178.435Y-108.458
X178.435Y-109.22
X178.816Y-119.253
X178.816Y-120.015
X178.816Y-120.777
X178.943Y-86.106
X178.943Y-86.868
X179.105Y-93.853
X179.105Y-97.663
X179.197Y-89.027
X179.197Y-108.458
X179.197Y-109.22
X179.3Y-79.756
X179.451Y-101.727
X179.451Y-102.362
X179.578Y-119.253
X179.578Y-120.015
X179.578Y-120.777
X179.705Y-86.106
X179.705Y-86.868
X179.8Y-80.43
X179.959Y-108.458
X179.959Y-109.22
X180.213Y-113.538
X180.304Y-97.663
X180.467Y-86.106
X180.467Y-86.868
X180.476Y-80.858
X180.721Y-101.727
X180.721Y-102.362
X180.848Y-93.853
X181.61Y-89.027
X181.61Y-119.253
X181.61Y-120.142
X181.61Y-120.904
X182.118Y-97.663
X182.372Y-119.253
X182.372Y-120.142
X182.372Y-120.904
X182.499Y-93.726
X182.499Y-100.965
X183.134Y-119.253
X183.134Y-120.142
X183.134Y-120.904
X183.3Y-80.772
X183.642Y-105.664
X184.531Y-93.98
X184.912Y-76.073
X185.792Y-92.869
X185.905Y-92.043
X185.928Y-93.853
X187.452Y-99.949
X187.455Y-77.981
X187.579Y-102.743
X187.96Y-89.916
X188.976Y-108.458
X188.976Y-109.22
X189.23Y-81.534
X189.23Y-82.169
X189.484Y-101.506
X189.484Y-102.469
X189.738Y-81.788
X189.738Y-108.458
X189.738Y-109.22
X190.5Y-108.458
X190.5Y-109.22
X190.754Y-101.506
X190.754Y-102.469
X191.135Y-78.232
X191.262Y-98.044
X191.262Y-108.458
X191.262Y-109.22
X191.389Y-72.517
X191.389Y-73.279
X191.389Y-122.174
X191.389Y-122.936
X192.024Y-101.506
X192.024Y-102.469
X192.151Y-72.517
X192.151Y-73.279
X192.151Y-122.174
X192.151Y-122.936
X192.419Y-78.982
X192.913Y-72.517
X192.913Y-73.279
X192.913Y-122.174
X192.913Y-122.936
X194.492Y-104.195
X195.142Y-103.433
X195.453Y-77.343
X195.453Y-78.105
X195.75Y-105.961
X195.834Y-85.725
X195.877Y-105.072
X196.215Y-77.343
X196.215Y-78.105
X196.596Y-112.014
X196.977Y-77.343
X196.977Y-78.105
T2
X105.451Y-82.712
T3
G00X99.212Y-77.492
M15
G01X98.411Y-77.492
M16
G05
G00X99.212Y-86.132
M15
G01X98.411Y-86.132
M16
G05
G00X103.541Y-77.492
M15
G01X102.441Y-77.492
M16
G05
G00X103.541Y-86.132
M15
G01X102.441Y-86.132
M16
G05
T4
G00X101.345Y-109.633
M15
G01X98.045Y-109.633
M16
G05
G00X101.345Y-115.133
M15
G01X98.045Y-115.133
M16
G05
T0
M30
