%TF.GenerationSoftware,KiCad,Pcbnew,7.0.9*%
%TF.CreationDate,2024-01-22T22:47:30+08:00*%
%TF.ProjectId,MotorKit,4d6f746f-724b-4697-942e-6b696361645f,rev?*%
%TF.SameCoordinates,Original*%
%TF.FileFunction,Paste,Bot*%
%TF.FilePolarity,Positive*%
%FSLAX46Y46*%
G04 Gerber Fmt 4.6, Leading zero omitted, Abs format (unit mm)*
G04 Created by KiCad (PCBNEW 7.0.9) date 2024-01-22 22:47:30*
%MOMM*%
%LPD*%
G01*
G04 APERTURE LIST*
G04 Aperture macros list*
%AMRoundRect*
0 Rectangle with rounded corners*
0 $1 Rounding radius*
0 $2 $3 $4 $5 $6 $7 $8 $9 X,Y pos of 4 corners*
0 Add a 4 corners polygon primitive as box body*
4,1,4,$2,$3,$4,$5,$6,$7,$8,$9,$2,$3,0*
0 Add four circle primitives for the rounded corners*
1,1,$1+$1,$2,$3*
1,1,$1+$1,$4,$5*
1,1,$1+$1,$6,$7*
1,1,$1+$1,$8,$9*
0 Add four rect primitives between the rounded corners*
20,1,$1+$1,$2,$3,$4,$5,0*
20,1,$1+$1,$4,$5,$6,$7,0*
20,1,$1+$1,$6,$7,$8,$9,0*
20,1,$1+$1,$8,$9,$2,$3,0*%
G04 Aperture macros list end*
%ADD10RoundRect,0.225000X0.335876X0.017678X0.017678X0.335876X-0.335876X-0.017678X-0.017678X-0.335876X0*%
%ADD11RoundRect,0.200000X0.275000X-0.200000X0.275000X0.200000X-0.275000X0.200000X-0.275000X-0.200000X0*%
%ADD12RoundRect,0.225000X0.225000X0.250000X-0.225000X0.250000X-0.225000X-0.250000X0.225000X-0.250000X0*%
%ADD13RoundRect,0.250000X0.250000X0.475000X-0.250000X0.475000X-0.250000X-0.475000X0.250000X-0.475000X0*%
%ADD14RoundRect,0.250000X1.100000X-0.325000X1.100000X0.325000X-1.100000X0.325000X-1.100000X-0.325000X0*%
%ADD15RoundRect,0.225000X-0.335876X-0.017678X-0.017678X-0.335876X0.335876X0.017678X0.017678X0.335876X0*%
%ADD16R,2.400000X0.740000*%
%ADD17RoundRect,0.337500X0.562500X-0.337500X0.562500X0.337500X-0.562500X0.337500X-0.562500X-0.337500X0*%
%ADD18RoundRect,0.200000X-0.275000X0.200000X-0.275000X-0.200000X0.275000X-0.200000X0.275000X0.200000X0*%
%ADD19RoundRect,0.225000X-0.250000X0.225000X-0.250000X-0.225000X0.250000X-0.225000X0.250000X0.225000X0*%
%ADD20RoundRect,0.150000X0.512500X0.150000X-0.512500X0.150000X-0.512500X-0.150000X0.512500X-0.150000X0*%
%ADD21RoundRect,0.243750X-0.456250X0.243750X-0.456250X-0.243750X0.456250X-0.243750X0.456250X0.243750X0*%
%ADD22RoundRect,0.100000X0.150000X0.750000X-0.150000X0.750000X-0.150000X-0.750000X0.150000X-0.750000X0*%
%ADD23RoundRect,0.200000X0.400000X1.050000X-0.400000X1.050000X-0.400000X-1.050000X0.400000X-1.050000X0*%
%ADD24RoundRect,0.250000X-0.475000X0.250000X-0.475000X-0.250000X0.475000X-0.250000X0.475000X0.250000X0*%
%ADD25RoundRect,0.250000X-0.362500X-1.425000X0.362500X-1.425000X0.362500X1.425000X-0.362500X1.425000X0*%
%ADD26RoundRect,0.200000X-0.200000X-0.275000X0.200000X-0.275000X0.200000X0.275000X-0.200000X0.275000X0*%
%ADD27RoundRect,0.225000X0.250000X-0.225000X0.250000X0.225000X-0.250000X0.225000X-0.250000X-0.225000X0*%
%ADD28RoundRect,0.200000X0.200000X0.275000X-0.200000X0.275000X-0.200000X-0.275000X0.200000X-0.275000X0*%
%ADD29RoundRect,0.250000X-0.250000X-0.475000X0.250000X-0.475000X0.250000X0.475000X-0.250000X0.475000X0*%
%ADD30RoundRect,0.200000X0.053033X-0.335876X0.335876X-0.053033X-0.053033X0.335876X-0.335876X0.053033X0*%
%ADD31RoundRect,0.225000X0.017678X-0.335876X0.335876X-0.017678X-0.017678X0.335876X-0.335876X0.017678X0*%
%ADD32RoundRect,0.200000X-0.335876X-0.053033X-0.053033X-0.335876X0.335876X0.053033X0.053033X0.335876X0*%
%ADD33RoundRect,0.150000X-0.150000X0.587500X-0.150000X-0.587500X0.150000X-0.587500X0.150000X0.587500X0*%
%ADD34RoundRect,0.225000X-0.225000X-0.250000X0.225000X-0.250000X0.225000X0.250000X-0.225000X0.250000X0*%
%ADD35RoundRect,0.250000X1.000000X0.900000X-1.000000X0.900000X-1.000000X-0.900000X1.000000X-0.900000X0*%
%ADD36RoundRect,0.042000X-0.258000X0.943000X-0.258000X-0.943000X0.258000X-0.943000X0.258000X0.943000X0*%
%ADD37RoundRect,0.218750X-0.256250X0.218750X-0.256250X-0.218750X0.256250X-0.218750X0.256250X0.218750X0*%
%ADD38RoundRect,0.200000X0.335876X0.053033X0.053033X0.335876X-0.335876X-0.053033X-0.053033X-0.335876X0*%
%ADD39R,0.600000X1.300000*%
%ADD40RoundRect,0.250000X-1.000000X-0.900000X1.000000X-0.900000X1.000000X0.900000X-1.000000X0.900000X0*%
%ADD41RoundRect,0.150000X0.150000X-0.512500X0.150000X0.512500X-0.150000X0.512500X-0.150000X-0.512500X0*%
G04 APERTURE END LIST*
D10*
%TO.C,C4*%
X150154008Y-95544008D03*
X149057992Y-94447992D03*
%TD*%
D11*
%TO.C,R6*%
X160274000Y-77374000D03*
X160274000Y-75724000D03*
%TD*%
D12*
%TO.C,C22*%
X107328000Y-105323000D03*
X105778000Y-105323000D03*
%TD*%
D13*
%TO.C,C18*%
X189537201Y-81883000D03*
X187637201Y-81883000D03*
%TD*%
D14*
%TO.C,C61*%
X167714800Y-113567000D03*
X167714800Y-110617000D03*
%TD*%
D15*
%TO.C,C57*%
X149578756Y-85418228D03*
X150674772Y-86514244D03*
%TD*%
%TO.C,C28*%
X150643624Y-88671363D03*
X151739640Y-89767379D03*
%TD*%
D12*
%TO.C,C56*%
X122174000Y-94710000D03*
X120624000Y-94710000D03*
%TD*%
D16*
%TO.C,J5*%
X146939000Y-123079000D03*
X150839000Y-123079000D03*
X146939000Y-121809000D03*
X150839000Y-121809000D03*
%TD*%
D17*
%TO.C,S2*%
X198247000Y-104500000D03*
X198247000Y-100200000D03*
%TD*%
D11*
%TO.C,R64*%
X124079000Y-104203000D03*
X124079000Y-102553000D03*
%TD*%
D18*
%TO.C,R58*%
X186309000Y-101664000D03*
X186309000Y-103314000D03*
%TD*%
D14*
%TO.C,C64*%
X125841000Y-113538000D03*
X125841000Y-110588000D03*
%TD*%
D15*
%TO.C,C15*%
X162773992Y-88446992D03*
X163870008Y-89543008D03*
%TD*%
D19*
%TO.C,C24*%
X112776000Y-93192000D03*
X112776000Y-94742000D03*
%TD*%
D18*
%TO.C,R29*%
X174244000Y-75254000D03*
X174244000Y-76904000D03*
%TD*%
D20*
%TO.C,U2*%
X193542500Y-80105000D03*
X193542500Y-81055000D03*
X193542500Y-82005000D03*
X191267500Y-82005000D03*
X191267500Y-80105000D03*
%TD*%
D13*
%TO.C,C20*%
X111567000Y-76454000D03*
X109667000Y-76454000D03*
%TD*%
D14*
%TO.C,C65*%
X122640600Y-113538000D03*
X122640600Y-110588000D03*
%TD*%
D21*
%TO.C,F1*%
X103554700Y-80886000D03*
X103554700Y-82761000D03*
%TD*%
D22*
%TO.C,J2*%
X143621000Y-74786000D03*
X142621000Y-74786000D03*
X141621000Y-74786000D03*
D23*
X144721000Y-71386000D03*
X140521000Y-71386000D03*
%TD*%
D11*
%TO.C,R8*%
X143636999Y-123015000D03*
X143636999Y-121365000D03*
%TD*%
D24*
%TO.C,C13*%
X195445199Y-80105000D03*
X195445199Y-82005000D03*
%TD*%
D11*
%TO.C,R61*%
X125857000Y-104203000D03*
X125857000Y-102553000D03*
%TD*%
D18*
%TO.C,R63*%
X114681000Y-101664000D03*
X114681000Y-103314000D03*
%TD*%
%TO.C,R22*%
X99033500Y-80998500D03*
X99033500Y-82648500D03*
%TD*%
D12*
%TO.C,C54*%
X128664000Y-94710000D03*
X127114000Y-94710000D03*
%TD*%
D25*
%TO.C,R53*%
X127593500Y-102870000D03*
X133518500Y-102870000D03*
%TD*%
D12*
%TO.C,C42*%
X172085000Y-94640000D03*
X170535000Y-94640000D03*
%TD*%
D19*
%TO.C,C45*%
X131572000Y-76295000D03*
X131572000Y-77845000D03*
%TD*%
D26*
%TO.C,R16*%
X109980000Y-84328001D03*
X111630000Y-84328001D03*
%TD*%
D12*
%TO.C,C44*%
X121184000Y-76295000D03*
X119634000Y-76295000D03*
%TD*%
D27*
%TO.C,C48*%
X124333000Y-77845000D03*
X124333000Y-76295000D03*
%TD*%
D18*
%TO.C,R19*%
X105791000Y-101474000D03*
X105791000Y-103124000D03*
%TD*%
D11*
%TO.C,R24*%
X105537000Y-92138000D03*
X105537000Y-90488000D03*
%TD*%
D18*
%TO.C,R46*%
X117742000Y-76232000D03*
X117742000Y-77882000D03*
%TD*%
D14*
%TO.C,C6*%
X184047000Y-113616000D03*
X184047000Y-110666000D03*
%TD*%
D28*
%TO.C,R33*%
X175564000Y-96164000D03*
X173914000Y-96164000D03*
%TD*%
D29*
%TO.C,C19*%
X109646600Y-82550000D03*
X111546600Y-82550000D03*
%TD*%
D12*
%TO.C,C52*%
X135789000Y-94710000D03*
X134239000Y-94710000D03*
%TD*%
%TO.C,C31*%
X179070000Y-78619000D03*
X177520000Y-78619000D03*
%TD*%
%TO.C,C49*%
X128918000Y-77070000D03*
X127368000Y-77070000D03*
%TD*%
D30*
%TO.C,R14*%
X152714121Y-88682864D03*
X153880847Y-87516138D03*
%TD*%
D31*
%TO.C,C12*%
X151671845Y-87569877D03*
X152767861Y-86473861D03*
%TD*%
D10*
%TO.C,C5*%
X162346008Y-90940008D03*
X161249992Y-89843992D03*
%TD*%
D11*
%TO.C,R7*%
X165989000Y-123015001D03*
X165989000Y-121365001D03*
%TD*%
D12*
%TO.C,C41*%
X175527000Y-94640000D03*
X173977000Y-94640000D03*
%TD*%
D11*
%TO.C,R62*%
X135255000Y-104076000D03*
X135255000Y-102426000D03*
%TD*%
D12*
%TO.C,C55*%
X125362000Y-94710000D03*
X123812000Y-94710000D03*
%TD*%
D14*
%TO.C,C63*%
X129143000Y-113538000D03*
X129143000Y-110588000D03*
%TD*%
D11*
%TO.C,R31*%
X189598000Y-77412000D03*
X189598000Y-75762000D03*
%TD*%
D18*
%TO.C,R59*%
X165735000Y-101664000D03*
X165735000Y-103314000D03*
%TD*%
%TO.C,R21*%
X100557500Y-80998500D03*
X100557500Y-82648500D03*
%TD*%
%TO.C,R18*%
X105791000Y-98426000D03*
X105791000Y-100076000D03*
%TD*%
D28*
%TO.C,R20*%
X100671300Y-79181900D03*
X99021300Y-79181900D03*
%TD*%
D15*
%TO.C,C3*%
X150835992Y-84160992D03*
X151932008Y-85257008D03*
%TD*%
D26*
%TO.C,R28*%
X181280000Y-76968000D03*
X182930000Y-76968000D03*
%TD*%
D14*
%TO.C,C10*%
X170966000Y-113567000D03*
X170966000Y-110617000D03*
%TD*%
D32*
%TO.C,R27*%
X149530637Y-89713637D03*
X150697363Y-90880363D03*
%TD*%
D26*
%TO.C,R17*%
X99072100Y-84414300D03*
X100722100Y-84414300D03*
%TD*%
D18*
%TO.C,R45*%
X122695000Y-76232000D03*
X122695000Y-77882000D03*
%TD*%
D12*
%TO.C,C46*%
X116231000Y-76295000D03*
X114681000Y-76295000D03*
%TD*%
D26*
%TO.C,R26*%
X181344000Y-75444000D03*
X182994000Y-75444000D03*
%TD*%
D33*
%TO.C,Q1*%
X191963000Y-91255600D03*
X193863000Y-91255600D03*
X192913000Y-93130600D03*
%TD*%
D25*
%TO.C,R39*%
X178647500Y-102870000D03*
X184572500Y-102870000D03*
%TD*%
D34*
%TO.C,C29*%
X188074000Y-74295000D03*
X189624000Y-74295000D03*
%TD*%
D11*
%TO.C,R12*%
X140589000Y-123015000D03*
X140589000Y-121365000D03*
%TD*%
D35*
%TO.C,D3*%
X108830000Y-115177000D03*
X104530000Y-115177000D03*
%TD*%
D12*
%TO.C,C16*%
X189582200Y-80105000D03*
X188032200Y-80105000D03*
%TD*%
D16*
%TO.C,J3*%
X159602000Y-121809000D03*
X155702000Y-121809000D03*
X159602000Y-123079000D03*
X155702000Y-123079000D03*
%TD*%
D11*
%TO.C,R9*%
X164465000Y-123015001D03*
X164465000Y-121365001D03*
%TD*%
D18*
%TO.C,R32*%
X191884000Y-75889000D03*
X191884000Y-77539000D03*
%TD*%
D12*
%TO.C,C38*%
X179083000Y-94640000D03*
X177533000Y-94640000D03*
%TD*%
D18*
%TO.C,R44*%
X134366000Y-76245000D03*
X134366000Y-77895000D03*
%TD*%
D36*
%TO.C,U4*%
X107442000Y-98281000D03*
X108712000Y-98281000D03*
X109982000Y-98281000D03*
X111252000Y-98281000D03*
X111252000Y-103221000D03*
X109982000Y-103221000D03*
X108712000Y-103221000D03*
X107442000Y-103221000D03*
%TD*%
D14*
%TO.C,C7*%
X180821200Y-113567000D03*
X180821200Y-110617000D03*
%TD*%
D28*
%TO.C,R3*%
X193534800Y-98924100D03*
X191884800Y-98924100D03*
%TD*%
D37*
%TO.C,D2*%
X198755000Y-84290500D03*
X198755000Y-85865500D03*
%TD*%
D11*
%TO.C,R11*%
X162941000Y-123015001D03*
X162941000Y-121365001D03*
%TD*%
D38*
%TO.C,R5*%
X153134797Y-84124929D03*
X151968071Y-82958203D03*
%TD*%
D12*
%TO.C,C53*%
X132220000Y-94710000D03*
X130670000Y-94710000D03*
%TD*%
D26*
%TO.C,R25*%
X184328000Y-75444000D03*
X185978000Y-75444000D03*
%TD*%
D37*
%TO.C,D1*%
X197104000Y-84302500D03*
X197104000Y-85877500D03*
%TD*%
D12*
%TO.C,C36*%
X186068000Y-94640000D03*
X184518000Y-94640000D03*
%TD*%
D11*
%TO.C,R10*%
X142113000Y-123015000D03*
X142113000Y-121365000D03*
%TD*%
D18*
%TO.C,R4*%
X190423800Y-94924100D03*
X190423800Y-96574100D03*
%TD*%
%TO.C,R30*%
X169278000Y-75317000D03*
X169278000Y-76967000D03*
%TD*%
D28*
%TO.C,R34*%
X172122000Y-96164000D03*
X170472000Y-96164000D03*
%TD*%
D17*
%TO.C,S1*%
X198247000Y-94975000D03*
X198247000Y-90675000D03*
%TD*%
D14*
%TO.C,C62*%
X132445000Y-113538000D03*
X132445000Y-110588000D03*
%TD*%
D18*
%TO.C,R60*%
X175133000Y-101664000D03*
X175133000Y-103314000D03*
%TD*%
D25*
%TO.C,R42*%
X167471500Y-102870000D03*
X173396500Y-102870000D03*
%TD*%
D14*
%TO.C,C66*%
X119389400Y-113538000D03*
X119389400Y-110588000D03*
%TD*%
D39*
%TO.C,U5*%
X107569000Y-89679000D03*
X108839000Y-89679000D03*
X110109000Y-89679000D03*
X111379000Y-89679000D03*
X111379000Y-94979000D03*
X110109000Y-94979000D03*
X108839000Y-94979000D03*
X107569000Y-94979000D03*
%TD*%
D27*
%TO.C,C30*%
X176530000Y-76803000D03*
X176530000Y-75253000D03*
%TD*%
%TO.C,C23*%
X112776000Y-91122800D03*
X112776000Y-89572800D03*
%TD*%
D18*
%TO.C,R57*%
X176911000Y-101664000D03*
X176911000Y-103314000D03*
%TD*%
D40*
%TO.C,D4*%
X104530000Y-109601000D03*
X108830000Y-109601000D03*
%TD*%
D19*
%TO.C,C32*%
X188074000Y-75812000D03*
X188074000Y-77362000D03*
%TD*%
D34*
%TO.C,C21*%
X109829000Y-105323000D03*
X111379000Y-105323000D03*
%TD*%
D30*
%TO.C,R43*%
X148480733Y-88716060D03*
X149647459Y-87549334D03*
%TD*%
D12*
%TO.C,C25*%
X172733000Y-75317000D03*
X171183000Y-75317000D03*
%TD*%
%TO.C,C37*%
X182512000Y-94640000D03*
X180962000Y-94640000D03*
%TD*%
D31*
%TO.C,C47*%
X147429268Y-87612268D03*
X148525284Y-86516252D03*
%TD*%
D22*
%TO.C,J1*%
X156083000Y-74798000D03*
X155083000Y-74798000D03*
X154083000Y-74798000D03*
X153083000Y-74798000D03*
D23*
X157183000Y-71398000D03*
X151983000Y-71398000D03*
%TD*%
D28*
%TO.C,R48*%
X122211000Y-96234000D03*
X120561000Y-96234000D03*
%TD*%
D14*
%TO.C,C8*%
X177519200Y-113567000D03*
X177519200Y-110617000D03*
%TD*%
D18*
%TO.C,R1*%
X190423800Y-90973900D03*
X190423800Y-92623900D03*
%TD*%
D28*
%TO.C,R47*%
X125412000Y-96234000D03*
X123762000Y-96234000D03*
%TD*%
D33*
%TO.C,Q2*%
X191963000Y-95218000D03*
X193863000Y-95218000D03*
X192913000Y-97093000D03*
%TD*%
D41*
%TO.C,U3*%
X111566999Y-80645001D03*
X110616999Y-80645001D03*
X109666999Y-80645001D03*
X109666999Y-78370001D03*
X111566999Y-78370001D03*
%TD*%
D10*
%TO.C,C14*%
X144058008Y-90083008D03*
X142961992Y-88986992D03*
%TD*%
D18*
%TO.C,R23*%
X97382500Y-80998500D03*
X97382500Y-82648500D03*
%TD*%
D19*
%TO.C,C26*%
X179438000Y-75545000D03*
X179438000Y-77095000D03*
%TD*%
D25*
%TO.C,R56*%
X116417500Y-102870000D03*
X122342500Y-102870000D03*
%TD*%
D12*
%TO.C,C27*%
X167767000Y-75380000D03*
X166217000Y-75380000D03*
%TD*%
D14*
%TO.C,C67*%
X116189000Y-113616000D03*
X116189000Y-110666000D03*
%TD*%
%TO.C,C9*%
X174268000Y-113567000D03*
X174268000Y-110617000D03*
%TD*%
M02*
