%TF.GenerationSoftware,KiCad,Pcbnew,7.0.9*%
%TF.CreationDate,2024-01-22T22:47:30+08:00*%
%TF.ProjectId,MotorKit,4d6f746f-724b-4697-942e-6b696361645f,rev?*%
%TF.SameCoordinates,Original*%
%TF.FileFunction,Profile,NP*%
%FSLAX46Y46*%
G04 Gerber Fmt 4.6, Leading zero omitted, Abs format (unit mm)*
G04 Created by KiCad (PCBNEW 7.0.9) date 2024-01-22 22:47:30*
%MOMM*%
%LPD*%
G01*
G04 APERTURE LIST*
%TA.AperFunction,Profile*%
%ADD10C,0.050000*%
%TD*%
G04 APERTURE END LIST*
D10*
X199257999Y-122035000D02*
G75*
G03*
X199257999Y-122035000I-1599999J0D01*
G01*
X197658000Y-125135000D02*
G75*
G03*
X200758000Y-122035000I0J3100000D01*
G01*
X98858000Y-70135000D02*
G75*
G03*
X95758000Y-73235002I0J-3100000D01*
G01*
X134757999Y-123135000D02*
G75*
G03*
X133557999Y-121935001I-1199999J0D01*
G01*
X121958000Y-121935001D02*
X133557999Y-121935001D01*
X172958000Y-121935001D02*
X184557999Y-121935001D01*
X100458001Y-73235002D02*
G75*
G03*
X100458001Y-73235002I-1600001J0D01*
G01*
X200757998Y-73235002D02*
G75*
G03*
X197658000Y-70135002I-3099998J2D01*
G01*
X185758000Y-123135001D02*
X185758000Y-125135000D01*
X134758000Y-125135000D02*
X171758000Y-125135000D01*
X95758000Y-73235002D02*
X95758000Y-122035000D01*
X171758000Y-125135000D02*
X171757998Y-123135001D01*
X199257999Y-73235002D02*
G75*
G03*
X199257999Y-73235002I-1599999J0D01*
G01*
X172958000Y-121934998D02*
G75*
G03*
X171757998Y-123135001I0J-1200002D01*
G01*
X197658000Y-70135002D02*
X98858000Y-70135002D01*
X100458001Y-122035000D02*
G75*
G03*
X100458001Y-122035000I-1600001J0D01*
G01*
X185757999Y-123135001D02*
G75*
G03*
X184557999Y-121935001I-1199999J1D01*
G01*
X134758000Y-123135000D02*
X134758000Y-125135000D01*
X200758000Y-122035000D02*
X200758000Y-73235002D01*
X98858000Y-125135000D02*
X120758000Y-125135000D01*
X120758000Y-125135000D02*
X120758000Y-123135000D01*
X121958000Y-121935000D02*
G75*
G03*
X120758000Y-123135000I0J-1200000D01*
G01*
X185758000Y-125135000D02*
X197658000Y-125135000D01*
X95758000Y-122035000D02*
G75*
G03*
X98858000Y-125135000I3100000J0D01*
G01*
M02*
